<svg xmlns="http://www.w3.org/2000/svg" viewBox="0 0 180 180">
  <rect width="180" height="180" fill="#edc22e"/>
  <!-- 2 -->
  <rect x="21" y="69" width="6" height="6" fill="#f9f6f2"/><rect x="27" y="69" width="6" height="6" fill="#f9f6f2"/><rect x="33" y="69" width="6" height="6" fill="#f9f6f2"/>
  <rect x="15" y="75" width="6" height="6" fill="#f9f6f2"/><rect x="39" y="75" width="6" height="6" fill="#f9f6f2"/>
  <rect x="39" y="81" width="6" height="6" fill="#f9f6f2"/>
  <rect x="33" y="87" width="6" height="6" fill="#f9f6f2"/>
  <rect x="27" y="93" width="6" height="6" fill="#f9f6f2"/>
  <rect x="21" y="99" width="6" height="6" fill="#f9f6f2"/>
  <rect x="15" y="105" width="6" height="6" fill="#f9f6f2"/><rect x="21" y="105" width="6" height="6" fill="#f9f6f2"/><rect x="27" y="105" width="6" height="6" fill="#f9f6f2"/><rect x="33" y="105" width="6" height="6" fill="#f9f6f2"/><rect x="39" y="105" width="6" height="6" fill="#f9f6f2"/>
  <!-- 0 -->
  <rect x="57" y="69" width="6" height="6" fill="#f9f6f2"/><rect x="63" y="69" width="6" height="6" fill="#f9f6f2"/><rect x="69" y="69" width="6" height="6" fill="#f9f6f2"/>
  <rect x="51" y="75" width="6" height="6" fill="#f9f6f2"/><rect x="75" y="75" width="6" height="6" fill="#f9f6f2"/>
  <rect x="51" y="81" width="6" height="6" fill="#f9f6f2"/><rect x="69" y="81" width="6" height="6" fill="#f9f6f2"/><rect x="75" y="81" width="6" height="6" fill="#f9f6f2"/>
  <rect x="51" y="87" width="6" height="6" fill="#f9f6f2"/><rect x="63" y="87" width="6" height="6" fill="#f9f6f2"/><rect x="75" y="87" width="6" height="6" fill="#f9f6f2"/>
  <rect x="51" y="93" width="6" height="6" fill="#f9f6f2"/><rect x="57" y="93" width="6" height="6" fill="#f9f6f2"/><rect x="75" y="93" width="6" height="6" fill="#f9f6f2"/>
  <rect x="51" y="99" width="6" height="6" fill="#f9f6f2"/><rect x="75" y="99" width="6" height="6" fill="#f9f6f2"/>
  <rect x="57" y="105" width="6" height="6" fill="#f9f6f2"/><rect x="63" y="105" width="6" height="6" fill="#f9f6f2"/><rect x="69" y="105" width="6" height="6" fill="#f9f6f2"/>
  <!-- 4 -->
  <rect x="93" y="69" width="6" height="6" fill="#f9f6f2"/>
  <rect x="87" y="75" width="6" height="6" fill="#f9f6f2"/><rect x="93" y="75" width="6" height="6" fill="#f9f6f2"/>
  <rect x="87" y="81" width="6" height="6" fill="#f9f6f2"/><rect x="99" y="81" width="6" height="6" fill="#f9f6f2"/>
  <rect x="81" y="87" width="6" height="6" fill="#f9f6f2"/><rect x="99" y="87" width="6" height="6" fill="#f9f6f2"/>
  <rect x="81" y="93" width="6" height="6" fill="#f9f6f2"/><rect x="87" y="93" width="6" height="6" fill="#f9f6f2"/><rect x="93" y="93" width="6" height="6" fill="#f9f6f2"/><rect x="99" y="93" width="6" height="6" fill="#f9f6f2"/><rect x="105" y="93" width="6" height="6" fill="#f9f6f2"/>
  <rect x="99" y="99" width="6" height="6" fill="#f9f6f2"/>
  <rect x="99" y="105" width="6" height="6" fill="#f9f6f2"/>
  <!-- 8 -->
  <rect x="123" y="69" width="6" height="6" fill="#f9f6f2"/><rect x="129" y="69" width="6" height="6" fill="#f9f6f2"/><rect x="135" y="69" width="6" height="6" fill="#f9f6f2"/>
  <rect x="117" y="75" width="6" height="6" fill="#f9f6f2"/><rect x="141" y="75" width="6" height="6" fill="#f9f6f2"/>
  <rect x="117" y="81" width="6" height="6" fill="#f9f6f2"/><rect x="141" y="81" width="6" height="6" fill="#f9f6f2"/>
  <rect x="123" y="87" width="6" height="6" fill="#f9f6f2"/><rect x="129" y="87" width="6" height="6" fill="#f9f6f2"/><rect x="135" y="87" width="6" height="6" fill="#f9f6f2"/>
  <rect x="117" y="93" width="6" height="6" fill="#f9f6f2"/><rect x="141" y="93" width="6" height="6" fill="#f9f6f2"/>
  <rect x="117" y="99" width="6" height="6" fill="#f9f6f2"/><rect x="141" y="99" width="6" height="6" fill="#f9f6f2"/>
  <rect x="123" y="105" width="6" height="6" fill="#f9f6f2"/><rect x="129" y="105" width="6" height="6" fill="#f9f6f2"/><rect x="135" y="105" width="6" height="6" fill="#f9f6f2"/>
</svg>
